<svg id="1505c554-5c38-4a77-999f-b8b9c5ae0b21" data-name="Слой 1" xmlns="http://www.w3.org/2000/svg" viewBox="0 0 716.9196 682.3234">
  <title>Poop_emoji</title>
  <g>
    <g>
      <path d="M301.91709,251.6815c2.3157-8.5144,5.9174-27.2932-1.922-42.3371-5.19609-9.9759-14.6765-16.7811-28.1767-20.2283a3.38743,3.38743,0,0,1-1.848-5.3393,71.84334,71.84334,0,0,0,.533-9.6037l.00661-.3976c.11239-4.8911-.03961-10.5883-2.03311-15.7778-2.7467-7.1444-8.4076-11.7535-12.672-14.3615a41.47405,41.47405,0,0,0-9.0288-4.1036c-.7929-.2181-6.3856-1.2489-9.0728-1.7445-2.93829-.5413-4.3535-.8076-5.0626-1.8441a217.38807,217.38807,0,0,1-78.0815,43.957c6.7373,8.6253,10.9556,20.7231,10.9556,34.1307a57.74478,57.74478,0,0,1-7.5329,29.0621c13.3078-3.6306,27.835-8.451,42.4777-19.4664a62.68405,62.68405,0,0,1-.735-9.5957c0-26.1183,15.93641-47.3665,35.5249-47.3665s35.5248,21.2482,35.5248,47.3665-15.9364,47.3665-35.5248,47.3665c-15.806,0-29.22149-13.8428-33.8179-32.9074C185.837,239.6773,166.772,246.4063,152.904,250.1686c-6.1919,6.9911-14.184,11.2296-22.9141,11.2296a28.11015,28.11015,0,0,1-14.7804-4.3493c-27.3514,2.6645-52.7403,2.792-57.2252,2.792-.4075,0-.6242-.0008-.6728-.001-6.3508,3.3434-19.517,11.4191-21.125,12.6983a42.34255,42.34255,0,0,0-13.8064,35.2352,41.89932,41.89932,0,0,0,21.1876,32.0017c8.8277,4.8605,18.8595,6.6432,29.3327,6.7314C107.6015,341.3864,269.646,314.312,301.91709,251.6815Zm-65.357,27.7368c-10.8196,19.5554-34.0557,32.4499-57.6706,32.451q-2.32274,0-4.6477-.1685a61.48645,61.48645,0,0,1-7.6059-1.0352c-20.9166-4.1961-35.7715-18.3627-44.5492-29.5072-1.9824-2.5165-2.7533-5.152-2.1718-7.423a6.02836,6.02836,0,0,1,4.1014-4.238,10.4732,10.4732,0,0,1,4.0375-.1277c32.8067,3.3877,62.3425,3.7445,90.2967,1.1013,1.59251-.1509,3.1939-.3722,4.7974-.5936,2.2754-.3128,4.63011-.6377,6.9517-.7577,3.12341-.1476,5.75341.9868,6.9627,3.0749C238.19669,274.1572,238.01379,276.7894,236.56009,279.4183Z" transform="translate(-16.54021 -33.8383)" style="fill: #8d633a"/>
      <path d="M301.996,260.3752c.08549.0488.16369.1065.25469.1485,25.71631,11.8471,38.2385,26.3122,37.2231,42.9931-1.13,18.5664-20.822,34.0083-39.6879,39.6659-18.2206,5.4637-38.1571,4.5606-57.4416,3.6906-3.74229-.1697-7.4627-.3371-11.1411-.4582a605.05358,605.05358,0,0,1-67.4924-6.129c-2.3767-.348-4.8723-.8766-7.5134-1.4372-3.2535-.6903-6.5615-1.3609-9.868-1.775C203.894,323.3515,275.88249,299.1259,301.996,260.3752ZM94.4651,214.0317c0-26.1183,15.9364-47.3665,35.5248-47.3665,8.0006,0,15.3668,3.5871,21.3118,9.5604.0454-.017.0776-.0526.1247-.0668,43.8536-13.214,72.7619-38.4144,79.9962-45.2129-2.3337-11.8882-5.1844-23.9397-9.6557-33.5858a97.11114,97.11114,0,0,0-31.6702-38.2705C175.374,48.607,151.737,37.3326,145.6378,43.4472c-1.0595,1.0628-1.3635,3.2181-.8172,5.7677.2819,1.315.5903,2.6113.8943,3.8933,1.9758,8.314,4.0177,16.9111-2.2049,25.8319a64.25536,64.25536,0,0,1-4.0155,5.0376c-2.8128,3.2875-5.2424,6.1278-5.9825,10.2391-1.0925,6.0607-.0066,13.1996.9516,19.4982a3.2796,3.2796,0,0,1-.0197.7094c6.7027.663,23.8433-.5128,37.5071-8.0058a2.25544,2.25544,0,1,1,2.1675,3.956c-11.5729,6.347-26.1723,8.6709-35.6328,8.672a27.08441,27.08441,0,0,1-8.1205-.9278c-5.8445,2.3404-24.3537,10.8981-32.6776,28.1893-5.5882,11.6059-5.6058,25.0786-.0507,40.0436a3.38536,3.38536,0,0,1-2.5154,4.4968c-.1696.0341-17.6435,3.7214-27.4675,19.1633-7.238,11.3769-8.6851,26.31-4.2974,44.3841v.0022a3.35317,3.35317,0,0,1,.0797.8909c8.9956-.1156,26.8656-.5647,46.4211-2.2746C100.571,244.4615,94.4651,230.1862,94.4651,214.0317Z" transform="translate(-16.54021 -33.8383)" style="fill: #754c29"/>
      <path d="M147.0955,214.5955c0,13.3913-7.5739,24.2471-16.9166,24.2471s-16.9166-10.8558-16.9166-24.2471,7.5738-24.2472,16.9166-24.2472S147.0955,201.2043,147.0955,214.5955Zm88.3422,24.2471c9.3428,0,16.9166-10.8558,16.9166-24.2471s-7.5738-24.2472-16.9166-24.2472-16.9166,10.856-16.9166,24.2472S226.095,238.8426,235.43769,238.8426Zm1.1224,40.5757c-10.8196,19.5554-34.0557,32.4499-57.6706,32.451q-2.32274,0-4.6477-.1685a61.46329,61.46329,0,0,1-7.6058-1.0353c-20.9167-4.196-35.7716-18.3626-44.5493-29.5071-1.9824-2.5166-2.7534-5.152-2.1719-7.423a6.02873,6.02873,0,0,1,4.1014-4.238,10.47377,10.47377,0,0,1,4.0376-.1277c32.8067,3.3877,62.3425,3.7445,90.2967,1.1013,1.5926-.1509,3.1939-.3722,4.79751-.5936,2.27529-.3128,4.63-.6377,6.95159-.7577,3.12341-.1476,5.7533.9868,6.9627,3.0749C238.19669,274.1572,238.01379,276.7894,236.56009,279.4183Zm-1.4494-6.0948c-.912-1.5771-3.0948-2.0496-4.8965-1.9505-2.2248.1146-4.5288.4318-6.7579.739-1.6366.2258-3.2688.4505-4.89429.6035-28.104,2.6609-57.7852,2.2985-90.7417-1.1013a17.37515,17.37515,0,0,0-1.7622-.1222,5.147,5.147,0,0,0-1.4207.1729,3.78841,3.78841,0,0,0-2.5375,2.6288c-.544,2.1257.8679,4.3383,1.7577,5.4682,8.5443,10.8483,22.9785,24.6315,43.2233,28.6921a59.21311,59.21311,0,0,0,7.3239.9979c23.9321,1.7412,49.2387-11.3483,60.1817-31.1261C235.63269,276.4359,235.82659,274.5658,235.11069,273.3235Zm33.4084-59.2919c0,24.9141-14.8952,45.1109-33.2694,45.1109-15.0366,0-27.7303-13.5333-31.8503-32.1015-.2793-1.2584-.5291-2.5342-.72739-3.8362a60.90648,60.90648,0,0,1-.69161-9.1732c0-24.914,14.8953-45.111,33.2693-45.111C253.62389,168.9206,268.51909,189.1176,268.51909,214.0316Zm-2.2559.0001c0-23.6304-13.912-42.8554-31.0137-42.8554s-31.0138,19.225-31.0138,42.8554,13.9121,42.8553,31.0138,42.8553S266.26319,237.6621,266.26319,214.0317Zm-103.003-.0001a54.82739,54.82739,0,0,1-8.4376,29.9489,40.0807,40.0807,0,0,1-4.9166,6.1255c-5.5564,5.6492-12.4357,9.0365-19.9151,9.0365a25.78544,25.78544,0,0,1-12.5948-3.3689,30.88492,30.88492,0,0,1-4.4399-3.0451c-9.7114-7.8779-16.2346-22.2364-16.2346-38.6969,0-24.914,14.8952-45.111,33.2693-45.111,7.4672,0,14.3361,3.3765,19.888,9.009q1.22235,1.24005,2.3537,2.6223C158.988,188.8085,163.2602,200.7287,163.2602,214.0316Zm-2.2565.0001c0-23.6304-13.9122-42.8554-31.0138-42.8554s-31.0137,19.225-31.0137,42.8554,13.9121,42.8553,31.0137,42.8553S161.0037,237.6621,161.0037,214.0317Z" transform="translate(-16.54021 -33.8383)" style="fill: #010101"/>
    </g>
    <g>
      <path d="M162.1303,574.7491c0-24.2515-14.4188-43.9832-32.1416-43.9832s-32.1415,19.7317-32.1415,43.9832,14.4188,43.9832,32.1415,43.9832S162.1303,599.0006,162.1303,574.7491Zm-31.9529,24.8105c-9.3427,0-16.9166-10.8558-16.9166-24.2471s7.5739-24.2471,16.9166-24.2471,16.9166,10.8558,16.9166,24.2471S139.5202,599.5596,130.1774,599.5596Zm105.0709-68.7937c-17.7228,0-32.1416,19.7317-32.1416,43.9832s14.4188,43.9832,32.1416,43.9832,32.1416-19.7317,32.1416-43.9832S252.97109,530.7659,235.24829,530.7659Zm.1879,68.7937c-9.3427,0-16.9165-10.8558-16.9165-24.2471s7.5738-24.2471,16.9165-24.2471,16.9167,10.8558,16.9167,24.2471S244.779,599.5596,235.43619,599.5596Zm-.3266,34.4813c.7158,1.2423.522,3.1124-.5244,5.0023-10.945,19.7756-36.2428,32.8948-60.1838,31.1238a59.02205,59.02205,0,0,1-7.3217-.9955c-20.2449-4.0618-34.6791-17.844-43.2232-28.6922-.8899-1.1299-2.3018-3.3436-1.7578-5.467a3.78568,3.78568,0,0,1,2.5375-2.63,5.20518,5.20518,0,0,1,1.4229-.174,17.57915,17.57915,0,0,1,1.76.1211c32.9543,3.4053,62.6354,3.7644,90.7416,1.1036,1.6235-.1542,3.2579-.3789,4.89231-.6036,2.22909-.3061,4.53529-.6233,6.75989-.7401C232.00589,631.999,234.19759,632.4638,235.10959,634.0409Z" transform="translate(-16.54021 -33.8383)" style="fill: #fff"/>
      <path d="M302.723,620.2168a2.25453,2.25453,0,0,1-1.16751-2.8458c.1036-.2709,10.106-27.3463-.5549-47.8225-5.3504-10.2754-15.0752-17.2778-28.9037-20.8087a2.25643,2.25643,0,0,1-1.0727-3.7445c.1719-.8062.4957-3.2071.6057-10.0421l.0066-.4405c.1147-4.9957-.0462-10.8306-2.11-16.2029-2.8592-7.4407-8.72049-12.2205-13.1346-14.9188a42.56473,42.56473,0,0,0-9.2756-4.2137c-.75329-.2225-6.5068-1.282-9.2711-1.793-3.9207-.7225-4.3304-.7973-4.6168-2.3304-2.4868-13.1192-5.4736-26.7384-10.4385-37.45a98.26978,98.26978,0,0,0-32.0402-38.7177c-11.2491-8.0056-38.417-23.029-45.9127-15.5179-1.9163,1.9241-1.4229,5.3966-1.1233,6.8008.2841,1.3205.5947,2.6234.9008,3.912,1.9185,8.0739,3.9054,16.4231-2.0308,24.931-1.2666,1.8139-2.6301,3.4076-3.9473,4.9483-2.9185,3.412-5.4405,6.3592-6.2358,10.7734-1.1255,6.2446-.0242,13.4826.945,19.8682a2.255,2.255,0,0,1-1.5265,2.4824c-.2489.0815-25.0136,8.4187-35.1416,29.4366-5.7335,11.8945-5.7665,25.6701-.099,40.9413a2.25494,2.25494,0,0,1-1.6741,2.9956c-.1806.0375-18.0862,3.7887-28.1877,19.6413-7.4231,11.65-8.923,26.8838-4.4583,45.2806v.0021a2.25383,2.25383,0,0,1-1.6608,2.7226,2.14117,2.14117,0,0,1-.8436.0418c-3.619,1.2996-22.236,12.5443-24.2779,14.2338a43.50354,43.50354,0,0,0-14.2184,36.2253,43.0473,43.0473,0,0,0,21.7647,32.875c21.2581,11.7051,49.0824,6.0397,73.6357,1.0397,6.934-1.4119,13.4826-2.7446,19.7602-3.6917h.0022a29.68972,29.68972,0,0,1,4.3878-.3106c5.0089,0,10.1478,1.0881,15.1567,2.152,2.6586.5639,5.1675,1.0947,7.5794,1.4494a606.4654,606.4654,0,0,0,67.6201,6.141c3.6763.119,7.39451.2886,11.1346.456,19.3748.8789,39.4081,1.7798,57.8094-3.7358,19.2403-5.7709,39.3266-21.595,40.4896-40.6768C341.64449,647.1116,328.902,632.2787,302.723,620.2168ZM95.5916,574.7491c0-25.496,15.4298-46.2387,34.3971-46.2387s34.3971,20.7427,34.3971,46.2387-15.4298,46.2387-34.3971,46.2387S95.5916,600.2451,95.5916,574.7491ZM236.559,640.1357c-10.82191,19.5554-34.058,32.4477-57.6707,32.4499q-2.32605,0-4.6499-.1674a61.91119,61.91119,0,0,1-7.6037-1.0352c-20.9166-4.1962-35.7715-18.3616-44.5492-29.5072-1.9824-2.5177-2.7533-5.1543-2.1718-7.423a6.02791,6.02791,0,0,1,4.1013-4.2379,10.54594,10.54594,0,0,1,4.0353-.1278c32.8068,3.3855,62.3426,3.7467,90.299,1.0991,1.5925-.1498,3.19171-.3701,4.7952-.5925,2.2776-.3128,4.6301-.6366,6.9539-.7555,3.1169-.1762,5.7555.9846,6.96261,3.0749C238.19549,634.8735,238.01259,637.5079,236.559,640.1357Zm-1.31071-19.1479c-18.96729,0-34.3971-20.7427-34.3971-46.2387s15.42981-46.2387,34.3971-46.2387,34.3971,20.7427,34.3971,46.2387S254.21559,620.9878,235.24829,620.9878Z" transform="translate(-16.54021 -33.8383)" style="fill: #936b45"/>
      <path d="M306.45879,616.9855c2.2357-6.923,8.52-30.3287-1.445-49.4965-5.6499-10.8658-15.542-18.4166-29.4234-22.4695a85.14948,85.14948,0,0,0,.5507-9.9935l.0066-.4053c.1167-5.1235-.05069-11.7888-2.4098-17.9277-3.3127-8.6235-9.9826-14.0862-14.9936-17.1522a47.129,47.129,0,0,0-10.2557-4.6609c-.7467-.2401-3.8965-.8393-9.8262-1.9318-.4758-.0881-.9119-.1674-1.28839-.2379-2.487-12.9407-5.51351-26.2626-10.49151-37.0051a102.781,102.781,0,0,0-33.516-40.4929c-.3899-.2798-39.1637-27.6349-51.7234-15.0279-2.4493,2.4571-3.3018,6.4407-2.3392,10.9309.2907,1.3535.6079,2.6894.9207,4.01,1.8458,7.7567,3.4384,14.4561-1.3414,21.3054-1.1388,1.6322-2.4274,3.1399-3.6741,4.5981-3.0661,3.5826-6.2358,7.2875-7.2491,12.9033-1.1453,6.3591-.2863,13.2535.6499,19.5202-6.2116,2.4009-26.5357,11.5156-35.9809,31.0776-6.0001,12.4253-6.3723,26.593-1.1145,42.1461-5.6895,1.6653-19.6545,7.0001-28.5688,20.9453-7.8525,12.2844-9.7161,28.0071-5.5508,46.7607-7.6851,3.0926-24.7405,14.4695-24.9057,14.617a48.10489,48.10489,0,0,0-15.7205,40.0646A47.62318,47.62318,0,0,0,40.8462,705.432c22.714,12.5068,51.3996,6.6653,76.7128,1.5088,6.8746-1.4008,13.3681-2.7224,19.5334-3.6498h-.0022c5.5485-.8304,11.8482.4978,17.9386,1.7908,2.6102.5529,5.3085,1.1255,7.8636,1.5a610.15739,610.15739,0,0,0,68.1223,6.1851c3.6608.1212,7.3592.2886,11.0817.456,7.3042.3304,14.6963.6652,22.0841.6652,12.59051,0,25.16351-.9714,37.2231-4.586,20.1017-6.0287,42.3488-22.5973,43.6968-44.7255C346.24579,645.7679,333.24779,629.7633,306.45879,616.9855Zm34.1393,47.3181c-1.163,19.0818-21.2493,34.9059-40.4896,40.6768-18.4013,5.5156-38.4346,4.6147-57.8094,3.7358-3.74009-.1674-7.4583-.337-11.1346-.456a606.4654,606.4654,0,0,1-67.6201-6.141c-2.4119-.3547-4.9208-.8855-7.5794-1.4494-5.0089-1.0639-10.1478-2.152-15.1567-2.152a29.68972,29.68972,0,0,0-4.3878.3106h-.0022c-6.2776.9471-12.8262,2.2798-19.7602,3.6917-24.5533,5-52.3776,10.6654-73.6357-1.0397a43.0473,43.0473,0,0,1-21.7647-32.875,43.50354,43.50354,0,0,1,14.2184-36.2253c2.0419-1.6895,20.6589-12.9342,24.2779-14.2338a2.14117,2.14117,0,0,0,.8436-.0418,2.25383,2.25383,0,0,0,1.6608-2.7226v-.0021c-4.4647-18.3968-2.9648-33.6306,4.4583-45.2806,10.1015-15.8526,28.0071-19.6038,28.1877-19.6413a2.25494,2.25494,0,0,0,1.6741-2.9956c-5.6675-15.2712-5.6345-29.0468.099-40.9413,10.128-21.0179,34.8927-29.3551,35.1416-29.4366a2.255,2.255,0,0,0,1.5265-2.4824c-.9692-6.3856-2.0705-13.6236-.945-19.8682.7953-4.4142,3.3173-7.3614,6.2358-10.7734,1.3172-1.5407,2.6807-3.1344,3.9473-4.9483,5.9362-8.5079,3.9493-16.8571,2.0308-24.931-.3061-1.2886-.6167-2.5915-.9008-3.912-.2996-1.4042-.793-4.8767,1.1233-6.8008,7.4957-7.5111,34.6636,7.5123,45.9127,15.5179a98.26978,98.26978,0,0,1,32.0402,38.7177c4.9649,10.7116,7.9517,24.3308,10.4385,37.45.2864,1.5331.6961,1.6079,4.6168,2.3304,2.7643.511,8.51781,1.5705,9.2711,1.793a42.56473,42.56473,0,0,1,9.2756,4.2137c4.41411,2.6983,10.2754,7.4781,13.1346,14.9188,2.0638,5.3723,2.2247,11.2072,2.11,16.2029l-.0066.4405c-.11,6.835-.4338,9.2359-.6057,10.0421a2.25643,2.25643,0,0,0,1.0727,3.7445c13.8285,3.5309,23.5533,10.5333,28.9037,20.8087,10.6609,20.4762.6585,47.5516.5549,47.8225a2.25453,2.25453,0,0,0,1.16751,2.8458C328.902,632.2787,341.64449,647.1116,340.59809,664.3036ZM129.9887,528.5104c-18.9673,0-34.3971,20.7427-34.3971,46.2387s15.4298,46.2387,34.3971,46.2387,34.3971-20.7427,34.3971-46.2387S148.956,528.5104,129.9887,528.5104ZM97.8472,574.7491c0-24.2515,14.4188-43.9832,32.1415-43.9832s32.1416,19.7317,32.1416,43.9832-14.4188,43.9832-32.1416,43.9832S97.8472,599.0006,97.8472,574.7491Zm49.2468.5634c0,13.3913-7.5738,24.2471-16.9166,24.2471s-16.9166-10.8558-16.9166-24.2471,7.5739-24.2471,16.9166-24.2471S147.094,561.9212,147.094,575.3125Zm88.15429-46.8021c-18.96729,0-34.3971,20.7427-34.3971,46.2387s15.42981,46.2387,34.3971,46.2387,34.3971-20.7427,34.3971-46.2387S254.21559,528.5104,235.24829,528.5104Zm0,90.2219c-17.7228,0-32.1416-19.7317-32.1416-43.9832s14.4188-43.9832,32.1416-43.9832,32.1416,19.7317,32.1416,43.9832S252.97109,618.7323,235.24829,618.7323Zm17.1046-43.4198c0,13.3913-7.57389,24.2471-16.9167,24.2471s-16.9165-10.8558-16.9165-24.2471,7.5738-24.2471,16.9165-24.2471S252.35289,561.9212,252.35289,575.3125ZM237.061,632.9131c-1.20711-2.0903-3.84571-3.2511-6.96261-3.0749-2.3238.1189-4.6763.4427-6.9539.7555-1.60349.2224-3.2027.4427-4.7952.5925-27.9564,2.6476-57.4922,2.2864-90.299-1.0991a10.54594,10.54594,0,0,0-4.0353.1278,6.02791,6.02791,0,0,0-4.1013,4.2379c-.5815,2.2687.1894,4.9053,2.1718,7.423,8.7777,11.1456,23.6326,25.311,44.5492,29.5072a61.91119,61.91119,0,0,0,7.6037,1.0352q2.32605.1686,4.6499.1674c23.6127-.0022,46.8488-12.8945,57.6707-32.4499C238.01259,637.5079,238.19549,634.8735,237.061,632.9131Zm-2.47581,6.1301c-10.945,19.7756-36.2428,32.8948-60.1838,31.1238a59.02205,59.02205,0,0,1-7.3217-.9955c-20.2449-4.0618-34.6791-17.844-43.2232-28.6922-.8899-1.1299-2.3018-3.3436-1.7578-5.467a3.78568,3.78568,0,0,1,2.5375-2.63,5.20518,5.20518,0,0,1,1.4229-.174,17.57915,17.57915,0,0,1,1.76.1211c32.9543,3.4053,62.6354,3.7644,90.7416,1.1036,1.6235-.1542,3.2579-.3789,4.89231-.6036,2.22909-.3061,4.53529-.6233,6.75989-.7401,1.793-.0903,3.9847.3745,4.8967,1.9516C235.82539,635.2832,235.63159,637.1533,234.58519,639.0432Z" transform="translate(-16.54021 -33.8383)" style="fill: #010101"/>
    </g>
    <g>
      <path d="M547.03619,574.7649c0-23.6303-13.912-42.8553-31.0137-42.8553-17.10149,0-31.0137,19.225-31.0137,42.8553s13.91221,42.8554,31.0137,42.8554C533.12419,617.6203,547.03619,598.3953,547.03619,574.7649Zm-47.7423.5644c0-13.3913,7.5737-24.2471,16.9166-24.2471,9.3427,0,16.91651,10.8558,16.91651,24.2471s-7.57381,24.2472-16.91651,24.2472C506.86759,599.5765,499.29389,588.7207,499.29389,575.3293Zm121.9882-43.4197c-17.1016,0-31.0137,19.225-31.0137,42.8553s13.9121,42.8554,31.0137,42.8554,31.0137-19.225,31.0137-42.8554S638.38368,531.9096,621.28208,531.9096Zm.1871,67.6669c-9.3427,0-16.9165-10.8558-16.9165-24.2472s7.5738-24.2471,16.9165-24.2471,16.9167,10.8558,16.9167,24.2471S630.812,599.5765,621.46918,599.5765Zm-1.306,35.0441c.6102,1.0551.1255,2.7027-.53318,3.8922-10.73792,19.4122-35.56,32.2428-59.11331,30.5489a58.12039,58.12039,0,0,1-7.1829-.9802h-.0023c-19.9078-3.9935-34.13049-17.5862-42.5558-28.2845-.6123-.7776-1.9912-2.7733-1.5529-4.4891a2.66806,2.66806,0,0,1,1.76-1.826,4.049,4.049,0,0,1,1.1058-.13,15.97,15.97,0,0,1,1.6475.1189c33.0381,3.4076,62.792,3.7732,90.9664,1.1014,1.641-.1542,3.2909-.3811,4.9429-.6102,2.3061-.3172,4.4847-.6167,6.6587-.729C617.68508,633.158,619.50448,633.4841,620.16318,634.6206Z" transform="translate(-16.54021 -33.8383)" style="fill: #fff"/>
      <path d="M685.381,616.9558c.035-.1228.05438-.247.10038-.3685.097-.2578,9.7381-26.4432-.4581-45.9986-5.0419-9.6698-14.2756-16.28-27.441-19.6436l-.0154-.0044a4.51451,4.51451,0,0,1-2.6367-6.8679,79.11946,79.11946,0,0,0,.47582-9.1808l.00888-.4075c.11012-4.7798-.0352-10.3394-1.9604-15.346-2.6301-6.8504-8.09048-11.2888-12.2051-13.8065a40.425,40.425,0,0,0-8.7843-3.9913c-.7973-.2092-6.4693-1.2555-8.8922-1.7026-2.894-.5335-4.7377-.8787-5.7436-2.206a217.89286,217.89286,0,0,1-77.2175,43.196c6.7326,8.6248,10.9356,20.7352,10.9356,34.1368a57.4422,57.4422,0,0,1-8.15639,30.1644c13.27809-4.0209,29.74259-10.5261,43.10009-20.5685a62.68774,62.68774,0,0,1-.7339-9.5959c0-26.1171,15.9364-47.3664,35.5249-47.3664S656.807,548.6478,656.807,574.7649c0,26.1173-15.93642,47.3666-35.52492,47.3666-15.8059,0-29.2282-13.8386-33.8248-32.9027-15.5878,11.1775-34.6385,17.9039-48.5009,21.6686-6.1936,6.9997-14.1978,11.2341-22.9339,11.2341a28.13044,28.13044,0,0,1-14.833-4.3432c-24.7001,2.4045-47.78749,2.7402-55.3146,2.7823-4.6484,2.0859-20.8475,11.9493-22.9642,13.5897a41.17077,41.17077,0,0,0-13.3769,34.2319,40.76019,40.76019,0,0,0,20.6106,31.1282c11.2255,6.1805,24.5015,7.31,38.1798,6.2649C515.08989,698.2297,650.63358,671.9628,685.381,616.9558Zm-61.80372,23.742c-11.0135,19.9057-34.6526,33.0315-58.6662,33.0337q-2.36235,0-4.7203-.1719a62.64257,62.64257,0,0,1-7.7469-1.055h.0022c-16.8242-3.3745-32.4588-13.7206-45.2122-29.9146-2.20489-2.7997-3.0507-5.7821-2.3812-8.4011a7.18635,7.18635,0,0,1,4.88331-5.0419,11.49874,11.49874,0,0,1,4.465-.1631c32.73839,3.3746,62.19929,3.7358,90.07638,1.0992,1.5771-.1498,3.163-.37,4.7512-.5881,2.2996-.3172,4.6741-.6454,7.042-.7687,3.5683-.1851,6.5772,1.174,8.0001,3.6388C625.40548,634.6779,625.22718,637.7132,623.57728,640.6978Zm100.8036,23.4828c-1.1014,18.0532-20.3948,33.1107-38.8862,38.6549-18.0422,5.4098-37.8839,4.5089-57.0759,3.6454-3.7445-.1696-7.4672-.3392-11.15-.4604a604.26972,604.26972,0,0,1-67.3646-6.1146c-2.3415-.3436-4.8173-.87-7.4407-1.4251-2.3406-.4969-4.7098-.9947-7.09049-1.3944,56.57208-13.7305,125.87308-37.5017,152.03828-75.0386a4.4412,4.4412,0,0,0,.4006.2334C713.059,633.9158,725.36318,648.0129,724.38088,664.1806ZM450.47949,614.8472c-4.304-17.7448-2.9097-32.3707,4.1411-43.4722,9.5486-15.0311,26.5929-18.6545,26.7515-18.6875a4.5118,4.5118,0,0,0,3.3547-5.9957c-5.4406-14.661-5.4406-27.8309.0023-39.1461,9.1788-19.0885,31.1237-27.343,33.5843-28.217a36.59281,36.59281,0,0,0,6.2049.45c9.4605,0,24.0599-2.3238,35.6305-8.6697a2.25546,2.25546,0,1,0-2.1674-3.9561c-12.9258,7.0875-28.9639,8.5261-36.3401,8.0967a4.48094,4.48094,0,0,0-.0306-.971c-.9449-6.2138-2.0176-13.2557-.9581-19.1281.6895-3.8106,2.9142-6.412,5.7291-9.705a65.23626,65.23626,0,0,0,4.086-5.1257c6.51331-9.336,4.3151-18.5839,2.3745-26.7438-.3018-1.272-.6079-2.5595-.8899-3.8646-.4516-2.108-.2489-3.9659.5155-4.7336,5.359-5.3844,28.6613,5.5519,43.0051,15.7636a95.98327,95.98327,0,0,1,31.3023,37.8255c4.5079,9.7259,7.3661,21.9886,9.7084,34.0127-8.59558,7.8911-36.9188,31.6274-79.02458,44.3146l.05769.1916c-5.9724-6.0717-13.4212-9.6873-21.4942-9.6873-19.58849,0-35.5249,21.2493-35.5249,47.3664,0,16.1497,6.0976,30.4308,15.38,38.9847-18.7422,1.6401-35.9653,2.1239-45.2833,2.2625a4.464,4.464,0,0,0-.11029-1.1473v-.0022Z" transform="translate(-16.54021 -33.8383)" style="fill: #845932"/>
      <path d="M516.21049,551.0822c9.3427,0,16.91651,10.8558,16.91651,24.2471s-7.57381,24.2472-16.91651,24.2472c-9.3429,0-16.9166-10.8558-16.9166-24.2472S506.86759,551.0822,516.21049,551.0822Zm217.175,113.6468c-1.4143,23.212-24.474,40.5053-45.30048,46.7498-12.32172,3.6939-25.08842,4.6829-37.84422,4.6829-7.4429,0-14.8813-.337-22.2295-.6696-3.70928-.1675-7.3944-.3326-11.0399-.4537a612.95571,612.95571,0,0,1-68.3756-6.2073c-2.6256-.3832-5.3591-.9648-8.0045-1.5264-5.8922-1.2489-11.9848-2.5441-17.13029-1.7686-6.10361.9207-12.56851,2.2378-19.41221,3.6299-25.6921,5.2379-54.8159,11.1631-78.2569-1.7423a49.23084,49.23084,0,0,1-8.7732-80.0917c1.3986-1.2467,9.7644-6.3416,13.5971-8.6147,4.7136-2.7952,7.9341-4.5904,10.2093-5.716-3.7643-18.5355-1.6652-34.19,6.2535-46.5801,8.291-12.9672,20.77341-18.8197,27.6282-21.1832-4.7005-15.2822-4.0595-29.2803,1.9251-41.6725,9.0465-18.7405,27.6658-28.223,35.5249-31.5226-.8216-5.8173-1.47579-12.4364-.381-18.4959,1.1211-6.2138,4.64321-10.3328,7.7511-13.9651,1.2666-1.4823,2.465-2.8832,3.5398-4.4251,4.2028-6.0199,2.7886-11.9661.9978-19.4937-.3172-1.3371-.6387-2.6885-.9317-4.0596-1.12779-5.249-.05279-9.9848,2.9429-12.9936,13.65431-13.7095,50.4787,11.824,54.6307,14.7811a105.01039,105.01039,0,0,1,34.2541,41.3829c4.8876,10.542,7.9098,23.4145,10.3658,36.0138,6.9605,1.2842,9.0904,1.7071,9.8812,1.9582a49.31828,49.31828,0,0,1,10.749,4.8899c7.61252,4.6565,13.1191,10.9716,15.921,18.2669,2.5023,6.5111,2.6807,13.4606,2.5552,18.7888l-.0045.3371c-.055,3.6741-.16518,6.3768-.3458,8.401,13.542,4.3525,23.27362,12.0861,28.9652,23.0357,9.573,18.4144,4.77342,40.461,2.1653,49.3511C721.72648,628.8959,734.56388,645.3389,733.38548,664.729Zm-282.906-49.8818.00451.0154v.0022a4.464,4.464,0,0,1,.11029,1.1473c9.318-.1386,26.5411-.6224,45.2833-2.2625-9.2824-8.5539-15.38-22.835-15.38-38.9847,0-26.1171,15.93641-47.3664,35.5249-47.3664,8.073,0,15.5218,3.6156,21.4942,9.6873l-.05769-.1916c42.10579-12.6872,70.429-36.4235,79.02458-44.3146-2.3423-12.0241-5.2005-24.2868-9.7083-34.0127a95.98435,95.98435,0,0,0-31.3024-37.8255c-14.3438-10.2117-37.6461-21.148-43.0051-15.7636-.7644.7677-.9671,2.6256-.5155,4.7336.282,1.3051.5881,2.5926.8899,3.8646,1.9406,8.1599,4.13881,17.4078-2.3745,26.7438a65.23626,65.23626,0,0,1-4.086,5.1257c-2.8149,3.293-5.0396,5.8944-5.7291,9.705-1.0595,5.8724.0132,12.9143.9581,19.1281a4.48094,4.48094,0,0,1,.0306.971c7.3762.4294,23.4143-1.0092,36.3401-8.0967a2.25546,2.25546,0,1,1,2.1674,3.9561c-11.5706,6.3459-26.17,8.6697-35.6305,8.6697a36.59068,36.59068,0,0,1-6.2048-.45c-2.4607.874-24.4056,9.1285-33.5844,28.217-5.4428,11.3152-5.4428,24.4851-.0023,39.1461a4.5118,4.5118,0,0,1-3.3547,5.9957c-.1586.033-17.2029,3.6564-26.7515,18.6875C447.56979,582.4765,446.17549,597.1024,450.47949,614.8472Zm65.543-82.9376c-17.10149,0-31.0137,19.225-31.0137,42.8553s13.91221,42.8554,31.0137,42.8554c17.1017,0,31.0137-19.225,31.0137-42.8554S533.12419,531.9096,516.02249,531.9096ZM685.381,616.9558c.035-.1228.05448-.247.10038-.3685.097-.2578,9.7381-26.4432-.4581-45.9986-5.0419-9.6698-14.2756-16.28-27.441-19.6436l-.0154-.0044a4.51451,4.51451,0,0,1-2.6367-6.8679,79.11946,79.11946,0,0,0,.47582-9.1808l.00888-.4075c.11012-4.7798-.0352-10.3394-1.9604-15.346-2.6301-6.8504-8.09048-11.2888-12.2051-13.8065a40.425,40.425,0,0,0-8.7843-3.9913c-.7973-.2092-6.4693-1.2555-8.8922-1.7026-2.894-.5335-4.7377-.8787-5.7436-2.206a217.89286,217.89286,0,0,1-77.2175,43.196c6.7326,8.6248,10.9356,20.7352,10.9356,34.1368a57.4422,57.4422,0,0,1-8.15639,30.1644c13.27809-4.0209,29.74259-10.5261,43.10009-20.5685a62.68774,62.68774,0,0,1-.7339-9.5959c0-26.1171,15.9364-47.3664,35.5249-47.3664S656.807,548.6478,656.807,574.7649c0,26.1173-15.93642,47.3666-35.52492,47.3666-15.8059,0-29.2282-13.8386-33.8248-32.9027-15.5878,11.1775-34.6385,17.9039-48.5009,21.6686-6.1936,6.9997-14.1978,11.2341-22.9339,11.2341a28.13044,28.13044,0,0,1-14.833-4.3432c-24.7,2.4045-47.78749,2.7402-55.3146,2.7823-4.6484,2.0859-20.8475,11.9493-22.9642,13.5897a41.17077,41.17077,0,0,0-13.3769,34.2319,40.76053,40.76053,0,0,0,20.6106,31.1283c11.2255,6.1804,24.5015,7.3099,38.1799,6.2647C515.08989,698.2297,650.63358,671.9628,685.381,616.9558Zm-64.09892.6645c17.1016,0,31.0137-19.225,31.0137-42.8554s-13.9121-42.8553-31.0137-42.8553-31.0137,19.225-31.0137,42.8553S604.18048,617.6203,621.28208,617.6203Zm66.5298,4.6609a4.4412,4.4412,0,0,1-.4006-.2334c-26.1652,37.5369-95.4662,61.308-152.03828,75.0386,2.38069.3997,4.74989.8975,7.09049,1.3944,2.6234.5551,5.0993,1.0815,7.4407,1.4251a604.29405,604.29405,0,0,0,67.3646,6.1147c3.6828.1211,7.4055.2906,11.15.4604,19.192.8633,39.0337,1.7643,57.0759-3.6455,18.4914-5.5442,37.7848-20.6017,38.8862-38.6549C725.36318,648.0129,713.059,633.9158,687.81188,622.2812Zm-66.3427-22.7047c9.34282,0,16.9167-10.8558,16.9167-24.2472s-7.57388-24.2471-16.9167-24.2471-16.9165,10.8558-16.9165,24.2471S612.12648,599.5765,621.46918,599.5765Zm2.6015,32.7886c1.3348,2.3128,1.1565,5.3481-.4934,8.3327-11.0135,19.9057-34.6526,33.0315-58.6662,33.0337q-2.36235,0-4.7203-.1719a62.62378,62.62378,0,0,1-7.7469-1.0551h.0022c-16.8242-3.3745-32.4588-13.7205-45.2122-29.9145-2.20489-2.7997-3.0507-5.7821-2.3811-8.4011a7.186,7.186,0,0,1,4.88321-5.0419,11.49874,11.49874,0,0,1,4.465-.1631c32.73839,3.3746,62.19929,3.7358,90.07638,1.0992,1.5771-.1498,3.163-.37,4.7512-.5881,2.2996-.3172,4.6741-.6454,7.042-.7687C619.63888,628.5412,622.64778,629.9003,624.07068,632.3651Zm-3.9075,2.2555c-.6587-1.1365-2.4781-1.4626-3.8591-1.3876-2.174.1123-4.3526.4118-6.6587.729-1.652.2291-3.3019.456-4.9429.6102-28.1744,2.6718-57.9283,2.3062-90.9664-1.1014a15.97,15.97,0,0,0-1.6475-.1189,4.049,4.049,0,0,0-1.1058.13,2.66806,2.66806,0,0,0-1.76,1.826c-.4383,1.7158.9406,3.7115,1.5529,4.4891,8.42531,10.6983,22.648,24.291,42.5558,28.2845h.0023a58.12039,58.12039,0,0,0,7.1829.9802c23.55331,1.6939,48.3754-11.1367,59.11331-30.5489C620.28868,637.3233,620.77338,635.6757,620.16318,634.6206Z" transform="translate(-16.54021 -33.8383)" style="fill: #231f20"/>
    </g>
    <path d="M695.21388,255.0638c2.608-8.89,7.4076-30.9378-2.1652-49.35-5.69168-10.9495-15.4232-18.6842-28.9653-23.0356.18062-2.0243.2908-4.727.3458-8.4022l.0045-.337c.1255-5.3283-.0529-12.2788-2.5552-18.7911-2.804-7.2952-8.30848-13.6114-15.9209-18.2646a49.31167,49.31167,0,0,0-10.7535-4.8911c-.7886-.2511-2.9186-.674-9.8769-1.957-2.456-12.5994-5.478-25.4696-10.3658-36.0139a105.0106,105.0106,0,0,0-34.2539-41.3829c-4.152-2.9571-40.96549-28.4939-54.6309-14.7811-2.9979,3.01-4.07059,7.7458-2.9428,12.9937.293,1.37.6146,2.7214.9317,4.0562,1.7886,7.5288,3.2027,13.476-.9978,19.497-1.0749,1.5408-2.2709,2.9406-3.53969,4.4219-3.108,3.6344-6.63,7.7535-7.75121,13.9705-1.0947,6.0563-.4405,12.6754.3811,18.4937-7.8592,3.2986-26.4785,12.7822-35.52489,31.5215-5.98471,12.3934-6.62571,26.3915-1.92511,41.6726-6.8548,2.3645-19.3374,8.216-27.6283,21.1853-7.91859,12.3901-10.0178,28.0435-6.2534,46.5791-2.2754,1.1266-5.4957,2.9207-10.2116,5.717-3.8327,2.2732-12.2007,7.3691-13.595,8.6136a49.23107,49.23107,0,0,0,8.7733,80.0917c23.44311,12.9066,52.5626,6.9748,78.2525,1.7434,6.8459-1.3943,13.3108-2.7104,19.41661-3.6311,5.14549-.7709,11.23589.5188,17.12589,1.7688,2.6476.5606,5.3833,1.1421,8.0089,1.5264a613.28636,613.28636,0,0,0,68.3779,6.2083c3.6454.12,7.3327.2863,11.0442.4549,7.3438.3315,14.7778.6674,22.2185.6674,12.7579,0,25.5268-.989,37.8487-4.684,20.8285-6.2457,43.8862-23.539,45.2981-46.7476C734.56478,284.5863,721.72758,268.1433,695.21388,255.0638ZM454.62159,210.6236c9.5486-15.0333,26.593-18.6556,26.7516-18.6887a4.51142,4.51142,0,0,0,3.3547-5.9946c-5.4407-14.661-5.4407-27.832.0022-39.1482,9.17691-19.0828,31.1156-27.3386,33.5831-28.2164a36.69706,36.69706,0,0,0,6.2061.4516c9.46271,0,24.0599-2.325,35.6306-8.6709a2.25544,2.25544,0,1,0-2.1675-3.956c-12.9369,7.0965-28.974,8.5233-36.3392,8.0908a4.48452,4.48452,0,0,0-.0314-.9651c-.945-6.2138-2.0177-13.258-.9582-19.1281.68941-3.8118,2.9141-6.4131,5.73141-9.7072a65.06232,65.06232,0,0,0,4.08369-5.1246c6.5112-9.3383,4.3129-18.5862,2.3745-26.7449-.3039-1.2721-.6101-2.5585-.8898-3.8625-.4516-2.1079-.2489-3.967.5154-4.7346,5.3613-5.3812,28.6613,5.5507,43.0051,15.7646a95.97219,95.97219,0,0,1,31.3024,37.8266c4.508,9.722,7.3583,21.9748,9.7033,34.0123-8.6097,7.8954-36.96758,31.6413-79.0195,44.3129l.0815.2715c-5.9798-6.0988-13.4251-9.7662-21.518-9.7662-19.5885,0-35.5249,21.2482-35.5249,47.3665,0,16.1548,6.1058,30.4303,15.3929,38.9832-18.747,1.6399-35.9759,2.1224-45.2962,2.2616a4.474,4.474,0,0,0-.11039-1.145V254.11l-.00441-.0154C446.17649,236.3498,447.57079,221.7251,454.62159,210.6236Zm30.3882,3.3888c0-23.6304,13.9121-42.8554,31.0138-42.8554s31.0137,19.225,31.0137,42.8554-13.9121,42.8554-31.0137,42.8554S485.00979,237.6428,485.00979,214.0124Zm-75.4749,93.6261A41.16811,41.16811,0,0,1,422.914,273.4066c2.12019-1.6447,18.37659-11.5408,22.97709-13.5904,7.4893-.0412,30.5894-.3739,55.3522-2.7867a28.10926,28.10926,0,0,0,14.7803,4.3494c8.73,0,16.7222-4.2387,22.9139-11.2296,13.8642-3.7612,32.9293-10.4893,48.5276-21.6778,4.5961,19.0648,18.0121,32.9074,33.818,32.9074,19.5885,0,35.52492-21.2482,35.52492-47.3665s-15.93642-47.3665-35.52492-47.3665-35.5248,21.2482-35.5248,47.3665a62.66505,62.66505,0,0,0,.7348,9.5952c-13.3623,10.0452-29.8257,16.5502-43.1037,20.5709a57.43555,57.43555,0,0,0,8.159-30.1661c0-13.4072-4.2181-25.5047-10.955-34.1299a217.9317,217.9317,0,0,0,77.2544-43.2184c1.0286,1.3423,2.8951,1.7001,5.6865,2.2148,2.4339.4494,8.1345,1.5001,8.9318,1.7104a40.267,40.267,0,0,1,8.7843,3.9913c5.8173,3.5562,10.1522,8.4583,12.2051,13.8031,1.9251,5.0089,2.07052,10.5673,1.9604,15.3483l-.0088.4064a79.21531,79.21531,0,0,1-.4758,9.184,4.51478,4.51478,0,0,0,2.641,6.868h.0044c13.1698,3.3646,22.4057,9.9737,27.4476,19.6468,10.1962,19.5543.5551,45.7398.4582,45.9975-.04548.1198-.0644.2423-.0991.3633-34.7176,54.9707-170.0641,81.2362-216.92789,88.8138-13.7238,1.0623-27.05-.045-38.3101-6.2439A40.76371,40.76371,0,0,1,409.53489,307.6385Zm180.7345-93.6261c0-23.6304,13.9121-42.8554,31.0137-42.8554s31.0138,19.225,31.0138,42.8554-13.9122,42.8554-31.0138,42.8554S590.26939,237.6428,590.26939,214.0124Zm134.1102,89.4168c-1.0991,18.051-20.3924,33.1085-38.8839,38.6548-18.0378,5.4087-37.8751,4.5133-57.0693,3.6444-3.749-.1696-7.4715-.3381-11.1566-.4593a603.90412,603.90412,0,0,1-67.3646-6.1179c-2.3414-.3425-4.8217-.869-7.4451-1.4252-2.34309-.4969-4.7159-.9883-7.0986-1.3879,56.575-13.7306,125.8816-37.5044,152.0478-75.0446a4.40636,4.40636,0,0,0,.4036.2352C713.06008,273.1632,725.36418,287.2615,724.37958,303.4292ZM516.21129,238.8237c-9.3426,0-16.9166-10.8558-16.9166-24.2471s7.574-24.2472,16.9166-24.2472,16.9166,10.8558,16.9166,24.2472S525.554,238.8237,516.21129,238.8237Zm88.3424-24.2471c0-13.3914,7.5737-24.2472,16.9166-24.2472,9.34272,0,16.9166,10.8558,16.9166,24.2472s-7.57388,24.2471-16.9166,24.2471C612.12738,238.8237,604.55368,227.9679,604.55368,214.5766Zm-52.1066,97.1765a62.67919,62.67919,0,0,0,7.7446,1.054q2.35905.17175,4.7226.1707c24.0136,0,47.6506-13.1269,58.664-33.0336,1.6498-2.9824,1.8282-6.0188.4934-8.3317-1.4251-2.4659-4.4384-3.8172-8.0001-3.6377-2.3679.1223-4.74458.4494-7.042.7665-1.5881.2181-3.1741.4373-4.7512.5871-27.8793,2.641-57.3402,2.2808-90.0809-1.0992a11.60564,11.60564,0,0,0-4.4604.1652,7.18416,7.18416,0,0,0-4.8833,5.042c-.6697,2.6178.17621,5.6003,2.3789,8.3999C519.98619,298.0315,535.62079,308.3764,552.44709,311.7531Zm-43.2232-37.1967a2.6714,2.6714,0,0,1,1.7599-1.8271,7.99728,7.99728,0,0,1,2.7534-.0132c33.0314,3.4075,62.7874,3.7688,90.9663,1.1035,1.6388-.1553,3.2886-.3821,4.9406-.6101,2.3063-.3172,4.4847-.6179,6.661-.7302,1.3898-.0595,3.2027.2511,3.8591,1.3888.6101,1.0562.1255,2.7038-.5331,3.8932-10.7425,19.4112-35.6174,32.255-59.1134,30.5457a58.08932,58.08932,0,0,1-7.1851-.9769c-19.9101-3.9956-34.13059-17.5862-42.5558-28.2846C510.16439,278.2668,508.78549,276.2701,509.22389,274.5564Z" transform="translate(-16.54021 -33.8383)" style="fill: #010101"/>
  </g>
</svg>
